<?xml version="1.0" standalone="no"?>
<!DOCTYPE svg PUBLIC "-//W3C//DTD SVG 20010904//EN"
 "http://www.w3.org/TR/2001/REC-SVG-20010904/DTD/svg10.dtd">
<svg version="1.0" xmlns="http://www.w3.org/2000/svg"
 width="1500.000000pt" height="1500.000000pt" viewBox="0 0 1500.000000 1500.000000"
 preserveAspectRatio="xMidYMid meet">

<g transform="translate(0.000000,1500.000000) scale(0.100000,-0.100000)"
fill="#000000" stroke="none">
<path d="M7049 14510 c-919 -52 -1776 -276 -2584 -675 -386 -191 -616 -328
-960 -574 -886 -632 -1623 -1497 -2109 -2471 -391 -784 -616 -1612 -687 -2525
-14 -186 -14 -718 0 -920 67 -925 289 -1747 687 -2545 336 -672 736 -1229
1269 -1765 452 -455 927 -813 1519 -1144 377 -212 878 -422 1301 -546 853
-250 1703 -333 2580 -250 986 93 1940 404 2785 909 159 95 455 292 590 392
262 194 584 483 853 763 984 1026 1618 2365 1796 3791 34 270 42 389 48 705
21 1103 -199 2107 -677 3090 -327 674 -754 1269 -1295 1809 -1142 1138 -2599
1811 -4215 1946 -168 14 -720 20 -901 10z m726 -350 c211 -13 439 -36 600 -61
1241 -190 2365 -724 3310 -1570 1291 -1157 2048 -2787 2103 -4528 68 -2104
-879 -4068 -2569 -5331 -312 -234 -593 -406 -969 -594 -678 -338 -1359 -538
-2130 -626 -714 -80 -1516 -28 -2215 145 -346 85 -705 205 -1020 340 -156 67
-515 249 -680 346 -907 529 -1702 1314 -2247 2219 -436 725 -718 1502 -842
2330 -217 1434 53 2887 767 4130 549 957 1349 1768 2295 2327 768 453 1594
731 2487 838 350 42 781 55 1110 35z"/>
<path d="M7771 13841 c-26 -26 -26 -42 -3 -69 13 -16 35 -22 89 -27 64 -6 73
-5 92 14 26 26 27 45 1 71 -13 13 -33 20 -59 20 -21 0 -52 3 -69 6 -22 5 -35
1 -51 -15z"/>
<path d="M8300 13780 c-43 -43 -16 -78 75 -95 74 -14 97 -9 115 25 13 24 -1
56 -27 64 -16 4 -131 26 -140 26 -2 0 -12 -9 -23 -20z"/>
<path d="M8823 13679 c-7 -7 -13 -25 -13 -40 0 -15 6 -31 13 -36 21 -17 142
-44 161 -37 24 9 39 50 26 74 -18 33 -164 63 -187 39z"/>
<path d="M9344 13540 c-25 -10 -34 -37 -23 -66 9 -26 134 -75 163 -64 28 10
40 33 32 63 -5 20 -18 30 -59 45 -78 29 -90 31 -113 22z"/>
<path d="M7125 13503 c-238 -11 -596 -57 -850 -109 -827 -169 -1596 -516
-2280 -1029 -1219 -915 -2014 -2254 -2234 -3765 -75 -511 -73 -1102 4 -1636
125 -860 452 -1694 939 -2394 639 -919 1437 -1581 2439 -2024 478 -211 1038
-364 1572 -430 499 -61 1074 -51 1588 29 777 121 1572 427 2237 862 275 180
549 397 798 630 l124 116 -80 80 -80 80 -134 -126 c-287 -271 -662 -552 -993
-742 -896 -516 -1863 -764 -2894 -742 -1235 26 -2416 472 -3381 1278 -171 142
-486 454 -638 629 -538 625 -927 1351 -1141 2135 -74 267 -131 576 -166 895
-23 200 -31 705 -16 923 99 1409 718 2699 1761 3665 327 304 675 554 1083 782
723 402 1593 642 2422 668 l210 7 3 113 3 112 -118 -2 c-65 -1 -145 -3 -178
-5z"/>
<path d="M9830 13330 c-38 -38 -21 -68 63 -105 71 -31 92 -31 111 -2 26 39 10
62 -63 96 -80 37 -85 37 -111 11z"/>
<path d="M10307 13092 c-37 -41 -19 -71 72 -117 59 -30 93 -25 106 14 10 32
-9 55 -73 89 -69 37 -83 39 -105 14z"/>
<path d="M4258 12984 c-61 -37 -76 -61 -59 -93 20 -37 48 -35 119 6 55 31 68
43 70 66 8 65 -45 74 -130 21z"/>
<path d="M7925 12956 c-60 -27 -85 -83 -61 -139 23 -57 55 -73 163 -86 320
-39 659 -118 1012 -237 250 -84 255 -86 287 -70 64 30 87 109 48 163 -26 37
-75 59 -274 128 -325 111 -608 180 -953 229 -205 30 -184 29 -222 12z"/>
<path d="M5548 12908 c-32 -11 -58 -24 -58 -28 0 -7 187 -547 221 -637 9 -24
11 -24 111 16 l27 10 -35 103 c-18 56 -34 119 -34 140 0 66 64 103 103 60 10
-10 35 -70 58 -133 22 -62 42 -115 44 -117 2 -2 33 6 68 17 l65 22 -40 112
c-53 151 -74 193 -111 219 -63 45 -181 20 -217 -47 -7 -14 -17 -22 -21 -18 -5
5 -26 60 -48 123 -61 177 -63 180 -69 179 -4 0 -33 -10 -64 -21z"/>
<path d="M10756 12807 c-9 -12 -13 -31 -10 -42 5 -20 97 -91 124 -96 43 -8 79
29 66 69 -9 25 -110 92 -140 92 -16 0 -31 -9 -40 -23z"/>
<path d="M3808 12685 c-64 -50 -75 -82 -36 -109 33 -23 46 -20 104 24 66 49
77 68 61 101 -21 42 -63 37 -129 -16z"/>
<path d="M5321 12501 c-104 -37 -160 -102 -168 -197 -4 -51 -1 -67 24 -114 60
-118 187 -150 312 -79 82 47 137 144 116 208 -6 19 -8 19 -65 -7 -43 -20 -60
-33 -60 -47 -1 -38 -46 -75 -92 -75 -49 0 -105 87 -93 146 10 56 86 84 127 47
17 -15 22 -15 78 12 33 16 60 32 60 35 0 9 -52 56 -75 68 -42 21 -108 23 -164
3z"/>
<path d="M11199 12506 c-45 -22 -37 -57 26 -115 60 -54 91 -63 118 -33 29 32
20 58 -35 105 -64 53 -78 59 -109 43z"/>
<path d="M7000 12454 c-303 -29 -574 -79 -839 -154 -785 -223 -1461 -619
-2037 -1195 -395 -394 -685 -803 -924 -1298 -368 -764 -518 -1617 -434 -2472
90 -929 458 -1810 1054 -2524 525 -630 1173 -1096 1925 -1386 483 -186 975
-287 1518 -311 l157 -6 0 121 0 121 -77 0 c-123 1 -436 27 -578 49 -1660 256
-3033 1411 -3560 2996 -155 466 -225 901 -225 1411 0 752 187 1477 549 2130
728 1312 2045 2163 3534 2284 165 13 535 13 708 0 563 -44 1119 -200 1638
-459 1063 -532 1873 -1476 2239 -2611 111 -343 174 -678 203 -1065 14 -196 6
-597 -15 -785 -62 -528 -218 -1050 -451 -1510 -185 -362 -469 -768 -727 -1036
l-97 -100 85 -85 86 -84 90 95 c566 596 976 1363 1162 2175 35 151 72 379 93
565 21 190 24 689 5 885 -62 631 -235 1225 -510 1745 -481 911 -1213 1620
-2127 2061 -461 222 -912 354 -1470 430 -199 27 -755 35 -975 13z"/>
<path d="M3406 12359 c-25 -23 -51 -50 -57 -60 -14 -28 -2 -58 28 -70 30 -11
45 -3 111 58 44 42 52 71 26 97 -26 26 -58 18 -108 -25z"/>
<path d="M4893 12270 c-76 -18 -160 -88 -190 -157 -33 -81 3 -197 78 -249 59
-41 147 -45 221 -12 61 28 115 78 134 125 15 35 19 129 6 137 -4 2 -32 -11
-62 -30 -46 -29 -55 -39 -56 -66 -2 -40 -43 -78 -84 -78 -27 0 -92 43 -80 53
3 2 65 39 138 83 72 43 132 82 132 86 0 4 -19 28 -42 52 -57 58 -115 75 -195
56z m67 -108 l23 -18 -79 -47 c-74 -43 -79 -45 -82 -26 -6 38 8 69 41 89 40
25 68 25 97 2z"/>
<path d="M4237 12109 c-216 -164 -207 -150 -149 -218 l28 -34 69 51 c37 29 71
52 74 52 3 -1 71 -89 151 -196 80 -108 148 -198 152 -200 9 -6 108 67 108 78
0 5 -67 98 -150 208 l-149 199 69 51 c39 29 70 55 70 60 0 7 -69 101 -73 99
-1 0 -91 -68 -200 -150z"/>
<path d="M11592 12144 c-35 -25 -27 -55 31 -112 58 -58 98 -68 117 -31 18 32
5 62 -49 112 -55 51 -66 55 -99 31z"/>
<path d="M3012 11977 c-55 -56 -64 -83 -34 -110 31 -28 57 -20 111 37 52 56
59 73 41 107 -20 36 -61 24 -118 -34z"/>
<path d="M10413 11961 c-18 -11 -39 -34 -48 -50 -33 -66 -16 -102 94 -190 269
-216 599 -536 781 -758 63 -78 125 -146 138 -152 78 -37 162 15 162 100 0 43
-11 60 -119 184 -321 369 -581 623 -856 835 -63 49 -109 58 -152 31z"/>
<path d="M7086 11949 c-49 -4 -148 -15 -219 -25 -121 -16 -133 -19 -165 -48
-65 -60 -48 -168 31 -201 28 -11 52 -10 177 8 122 17 206 20 524 23 428 3 417
1 445 81 13 35 13 46 0 78 -22 59 -55 77 -156 86 -112 10 -520 9 -637 -2z"/>
<path d="M11950 11750 c-30 -30 -25 -46 31 -111 55 -64 83 -73 114 -39 25 27
14 55 -43 118 -53 57 -71 63 -102 32z"/>
<path d="M8666 11731 c-16 -11 -35 -30 -42 -43 -18 -31 -17 -93 1 -127 17 -33
37 -44 210 -107 152 -56 450 -203 618 -304 133 -80 166 -90 216 -62 66 36 87
116 47 177 -17 26 -191 135 -356 223 -208 110 -578 262 -638 262 -15 0 -40 -9
-56 -19z"/>
<path d="M5760 11617 c-197 -85 -481 -240 -673 -369 -167 -112 -205 -145 -217
-188 -27 -99 80 -191 168 -143 17 10 92 59 165 109 182 126 377 238 553 318
82 38 159 78 172 89 29 27 43 78 31 120 -22 80 -102 105 -199 64z"/>
<path d="M2689 11603 c-75 -82 -87 -121 -45 -148 19 -13 29 -14 45 -5 32 16
101 109 101 134 0 52 -61 63 -101 19z"/>
<path d="M3378 11408 c-49 -60 -58 -81 -58 -130 0 -41 4 -47 80 -119 78 -74
79 -76 63 -98 -15 -23 -15 -25 23 -56 l39 -33 22 20 22 20 112 -97 113 -98 47
53 47 52 -111 96 c-62 53 -114 97 -116 98 -2 2 10 21 27 42 l31 39 -41 33 -41
34 -32 -37 -31 -36 -62 55 c-34 31 -62 60 -62 66 0 5 11 24 25 40 l26 30 -38
34 c-21 18 -41 33 -44 34 -4 0 -22 -19 -41 -42z"/>
<path d="M12280 11330 c-31 -31 -25 -51 37 -127 40 -50 74 -56 99 -19 14 23
14 28 -1 59 -21 45 -79 107 -99 107 -9 0 -25 -9 -36 -20z"/>
<path d="M2384 11193 c-6 -5 -25 -29 -42 -55 -38 -55 -42 -102 -11 -118 35
-19 62 -3 103 61 33 51 38 65 30 87 -7 20 -17 28 -39 30 -17 1 -35 -1 -41 -5z"/>
<path d="M3379 10894 c-56 -17 -123 -79 -150 -137 -23 -53 -25 -146 -3 -193
38 -79 144 -133 224 -115 146 33 241 204 186 334 -19 46 -88 103 -141 116 -53
13 -58 13 -116 -5z m110 -143 c41 -29 57 -73 41 -111 -15 -37 -55 -70 -83 -70
-11 0 -39 11 -63 25 -54 32 -73 79 -50 124 33 64 93 76 155 32z"/>
<path d="M12565 10880 c-20 -23 -14 -47 36 -125 23 -36 34 -45 57 -45 62 0 68
46 16 131 -29 49 -40 59 -63 59 -15 0 -36 -9 -46 -20z"/>
<path d="M2102 10730 c-33 -35 -65 -116 -58 -144 6 -26 43 -43 70 -33 13 5 69
100 81 138 7 22 -27 59 -55 59 -10 0 -28 -9 -38 -20z"/>
<path d="M10325 10676 c-51 -23 -70 -52 -70 -110 0 -52 1 -53 93 -157 171
-194 316 -391 451 -613 39 -65 78 -117 96 -128 35 -22 91 -19 131 7 32 21 58
80 50 116 -12 62 -228 393 -381 586 -114 144 -246 285 -282 299 -39 17 -50 17
-88 0z"/>
<path d="M4230 10452 c-82 -41 -361 -450 -519 -762 -88 -172 -93 -210 -37
-266 29 -29 41 -34 80 -34 71 0 90 19 161 160 109 217 234 417 384 614 97 128
100 133 101 182 0 49 -28 90 -76 110 -43 18 -52 18 -94 -4z"/>
<path d="M12816 10414 c-22 -22 -20 -35 16 -109 34 -69 59 -86 96 -66 11 6 22
19 25 30 5 21 -34 114 -60 143 -20 22 -56 23 -77 2z"/>
<path d="M1869 10253 c-8 -10 -26 -42 -39 -71 -30 -67 -21 -105 26 -110 37 -4
53 13 82 87 27 65 27 73 4 94 -24 22 -55 22 -73 0z"/>
<path d="M2438 9936 l-26 -65 155 -62 154 -61 -41 -35 c-48 -42 -70 -89 -70
-152 1 -187 231 -280 368 -148 39 38 67 122 57 174 -6 31 -4 34 13 29 15 -5
23 5 45 59 l26 66 -22 9 c-32 12 -610 241 -623 246 -6 3 -22 -24 -36 -60z
m458 -264 c52 -41 58 -100 15 -143 -65 -64 -171 -20 -171 71 0 57 33 90 92 90
26 0 52 -7 64 -18z"/>
<path d="M13016 9919 c-13 -19 -13 -27 6 -73 11 -28 24 -61 28 -73 17 -43 85
-41 96 3 6 25 -16 99 -42 142 -19 29 -67 30 -88 1z"/>
<path d="M12065 9840 c-11 -4 -31 -19 -44 -34 -34 -36 -30 -82 17 -201 124
-314 221 -679 277 -1040 31 -206 29 -198 66 -230 47 -39 101 -35 146 10 l36
36 -6 87 c-18 241 -121 687 -236 1022 -88 255 -114 312 -151 338 -34 23 -70
27 -105 12z"/>
<path d="M1673 9758 c-6 -7 -21 -44 -33 -82 l-23 -70 27 -22 c47 -42 77 -16
109 92 14 46 14 54 1 73 -17 24 -66 29 -81 9z"/>
<path d="M8984 9639 c-23 -5 -52 -21 -65 -35 l-24 -26 -2 -741 c-3 -800 -5
-770 50 -811 24 -18 43 -21 125 -21 118 0 152 15 176 75 13 34 16 84 16 297
l0 256 48 47 c99 100 247 88 301 -24 20 -39 21 -60 21 -289 0 -204 3 -254 16
-287 24 -60 58 -75 176 -75 105 0 138 13 165 66 20 39 18 573 -3 653 -38 146
-146 286 -267 345 -151 74 -291 66 -402 -24 l-54 -44 -3 277 c-3 302 -5 310
-62 348 -30 19 -155 27 -212 13z"/>
<path d="M4913 9550 c-33 -13 -51 -49 -54 -105 -5 -91 0 -123 25 -152 l24 -28
254 -5 253 -5 5 -587 c5 -576 5 -587 26 -615 11 -15 38 -34 60 -41 50 -17 178
-11 220 11 60 31 59 17 62 655 l3 582 235 0 c278 0 296 4 315 72 13 51 7 155
-12 185 -7 12 -24 26 -36 32 -30 14 -1347 14 -1380 1z"/>
<path d="M13199 9427 c-8 -7 -18 -19 -21 -28 -8 -19 22 -130 41 -153 18 -22
54 -20 76 4 17 18 17 22 0 90 -21 88 -55 119 -96 87z"/>
<path d="M2232 9368 c-13 -44 -15 -65 -8 -69 16 -9 636 -199 651 -199 13 0 52
116 42 126 -6 7 -644 204 -658 204 -5 0 -17 -28 -27 -62z"/>
<path d="M1528 9243 c-16 -19 -38 -97 -38 -136 0 -33 33 -61 63 -53 27 6 40
30 57 109 12 52 11 59 -5 77 -22 25 -57 26 -77 3z"/>
<path d="M11208 9144 c-32 -17 -58 -62 -58 -100 0 -15 13 -70 29 -123 75 -243
129 -510 152 -754 14 -144 29 -180 85 -203 50 -21 97 -9 134 32 26 30 30 43
30 92 0 138 -54 477 -111 707 -57 228 -87 311 -120 339 -35 30 -97 34 -141 10z"/>
<path d="M2450 9113 c-10 -32 -9 -46 4 -77 20 -47 20 -45 -3 -39 -20 5 -29
-15 -47 -103 l-6 -30 197 -47 c109 -27 199 -46 202 -44 5 6 34 129 31 132 -2
1 -50 13 -108 26 -88 19 -110 28 -137 55 -18 18 -33 42 -33 54 0 23 17 61 32
71 5 3 -12 12 -39 18 -26 7 -56 14 -65 17 -13 4 -20 -5 -28 -33z"/>
<path d="M6970 9140 c-187 -26 -362 -146 -441 -301 -47 -93 -62 -176 -56 -309
6 -140 28 -210 101 -319 122 -182 320 -258 610 -234 185 16 268 46 318 114 28
37 26 105 -5 165 -50 98 -88 113 -195 78 -105 -34 -240 -43 -311 -19 -59 19
-121 72 -121 103 0 21 4 21 284 24 l284 3 44 30 c62 44 89 99 95 193 6 84 -10
159 -49 236 -29 56 -119 148 -176 179 -94 51 -252 74 -382 57z m174 -344 c41
-17 66 -51 66 -91 0 -64 -30 -75 -212 -75 l-140 0 7 28 c10 43 58 95 115 125
58 30 112 35 164 13z"/>
<path d="M8212 9129 c-175 -26 -346 -146 -427 -300 -138 -264 -46 -597 208
-748 183 -108 406 -120 567 -29 86 48 117 76 140 123 30 62 16 106 -57 185
-58 63 -98 90 -132 90 -10 0 -50 -17 -88 -37 -57 -31 -78 -37 -130 -37 -53 -1
-67 3 -104 29 -60 42 -81 82 -81 154 0 85 32 136 111 176 51 26 144 17 195
-18 57 -40 108 -53 145 -37 37 15 103 85 129 137 50 99 35 151 -67 219 -114
77 -273 113 -409 93z"/>
<path d="M13322 8913 c-27 -11 -33 -42 -21 -110 14 -80 22 -93 60 -93 48 0 60
31 45 112 -17 89 -36 110 -84 91z"/>
<path d="M1426 8721 c-9 -10 -21 -46 -27 -81 -11 -72 4 -110 45 -110 38 0 55
30 62 109 6 65 5 76 -11 87 -26 19 -49 17 -69 -5z"/>
<path d="M2459 8720 c-140 -74 -174 -276 -66 -384 88 -87 210 -87 294 0 88 91
97 243 20 331 -62 70 -172 93 -248 53z m166 -150 c42 -39 29 -126 -22 -149
-50 -23 -131 -2 -153 40 -18 33 -6 100 22 122 32 27 119 19 153 -13z"/>
<path d="M3413 8693 c-46 -9 -79 -64 -97 -159 -45 -250 -70 -547 -64 -792 4
-198 13 -228 74 -257 43 -20 72 -19 111 5 57 34 61 53 61 287 1 234 13 392 44
588 33 209 34 245 7 279 -22 28 -76 57 -101 55 -7 -1 -23 -4 -35 -6z"/>
<path d="M13376 8371 c-15 -16 -17 -30 -11 -88 8 -74 25 -103 61 -103 38 0 53
33 47 103 -3 34 -12 72 -19 85 -18 27 -55 29 -78 3z"/>
<path d="M2062 8183 l3 -77 212 -40 c117 -22 212 -41 210 -42 -1 -2 -96 -28
-211 -58 -115 -31 -211 -57 -213 -59 -2 -2 -6 -34 -10 -70 l-6 -65 99 -31 c55
-16 150 -45 211 -63 62 -18 113 -35 113 -39 0 -3 -84 -18 -187 -33 -104 -15
-198 -30 -210 -33 -21 -5 -23 -11 -23 -79 0 -55 3 -74 13 -74 13 0 560 95 605
105 21 5 22 10 22 88 l0 83 -221 69 c-145 45 -214 71 -202 76 10 3 104 30 210
59 105 29 197 56 203 60 14 9 27 170 13 170 -5 0 -148 29 -317 65 -169 36
-309 65 -312 65 -3 0 -4 -35 -2 -77z"/>
<path d="M1369 8194 c-8 -10 -15 -48 -17 -89 -4 -79 9 -105 53 -105 37 0 55
35 55 111 0 51 -4 70 -18 82 -24 22 -56 22 -73 1z"/>
<path d="M13410 7842 c-17 -14 -23 -31 -27 -82 -3 -36 0 -77 6 -92 14 -36 55
-47 81 -23 17 15 20 31 20 101 0 74 -2 84 -22 98 -28 20 -31 20 -58 -2z"/>
<path d="M3905 7696 c-96 -30 -176 -90 -189 -142 -4 -14 -2 -42 5 -63 16 -48
605 -1248 632 -1285 26 -36 110 -76 162 -76 52 0 137 40 162 76 25 36 610
1224 629 1279 20 54 10 87 -38 131 -80 72 -202 106 -257 73 -29 -18 -32 -23
-276 -559 -114 -250 -211 -459 -215 -464 -9 -9 -14 1 -271 563 -112 246 -196
416 -214 436 -35 39 -74 48 -130 31z"/>
<path d="M1372 7664 c-20 -13 -22 -24 -22 -93 0 -51 4 -82 13 -88 26 -21 46
-21 71 -2 23 18 26 28 26 85 0 56 -4 68 -25 89 -28 29 -33 30 -63 9z"/>
<path d="M13376 7288 c-7 -13 -17 -50 -20 -83 -7 -69 9 -105 48 -105 36 0 53
29 61 103 6 58 4 72 -11 88 -23 26 -60 24 -78 -3z"/>
<path d="M5935 7270 c-341 -52 -552 -350 -491 -690 39 -220 175 -379 380 -447
73 -24 96 -26 231 -26 217 -1 338 28 401 94 26 27 29 38 29 93 0 52 -5 71 -30
112 -19 31 -44 56 -68 68 l-38 18 -82 -28 c-193 -66 -388 -31 -426 76 l-10 30
277 0 277 0 51 30 c63 35 91 79 106 160 15 77 0 177 -39 258 -52 111 -182 214
-305 241 -69 16 -197 21 -263 11z m197 -354 c49 -32 62 -100 27 -132 -18 -17
-40 -19 -175 -22 -137 -3 -154 -2 -154 13 0 43 69 122 134 151 39 18 134 12
168 -10z"/>
<path d="M6846 7266 c-56 -21 -138 -80 -159 -115 -21 -37 -22 -73 -1 -114 9
-18 109 -187 221 -376 113 -189 209 -354 214 -365 8 -17 -3 -50 -55 -165 -90
-197 -136 -313 -136 -346 0 -64 142 -155 240 -155 76 0 74 -3 410 749 207 462
310 704 310 727 0 69 -113 150 -225 161 -83 9 -95 -8 -229 -305 -63 -139 -116
-256 -119 -259 -3 -2 -78 117 -167 266 -89 150 -172 278 -184 286 -34 23 -77
26 -120 11z"/>
<path d="M9474 7265 c-117 -25 -253 -110 -335 -210 -87 -106 -123 -212 -122
-365 1 -170 52 -288 180 -411 174 -168 412 -212 638 -118 133 55 254 179 309
316 50 123 52 303 5 428 -98 261 -397 421 -675 360z m245 -398 c76 -50 104
-130 81 -227 -40 -168 -295 -204 -382 -53 -40 68 -32 183 17 242 65 76 199 94
284 38z"/>
<path d="M8533 7229 c-34 -17 -74 -45 -89 -60 l-27 -29 -18 41 c-24 53 -64 69
-171 69 -100 0 -145 -19 -170 -70 -16 -32 -18 -77 -18 -488 0 -501 1 -505 62
-539 47 -26 212 -26 251 0 61 40 62 44 67 368 5 296 5 298 29 323 51 55 143
72 218 41 46 -19 96 -19 134 1 46 23 92 129 93 210 2 111 -56 156 -209 162
-85 4 -93 2 -152 -29z"/>
<path d="M10450 7244 c-93 -34 -90 -18 -90 -549 0 -504 1 -509 62 -542 45 -24
199 -25 244 -1 59 32 64 58 64 335 0 219 3 253 19 288 22 48 44 69 94 90 78
32 185 6 231 -58 20 -27 21 -46 26 -300 6 -302 9 -316 70 -351 28 -17 52 -21
125 -21 110 1 145 16 169 75 23 58 23 505 0 618 -34 166 -149 318 -289 384
-56 25 -83 32 -160 36 -83 4 -98 2 -147 -21 -31 -13 -74 -41 -97 -62 -36 -33
-41 -35 -47 -19 -29 90 -41 97 -164 101 -52 1 -102 0 -110 -3z"/>
<path d="M1400 7131 c-15 -10 -17 -51 -5 -127 4 -31 13 -49 31 -60 22 -15 26
-15 50 1 26 17 26 19 19 88 -3 39 -11 79 -16 89 -10 19 -54 24 -79 9z"/>
<path d="M13310 6766 c-6 -8 -18 -45 -25 -82 -16 -72 -10 -98 25 -109 50 -16
74 18 86 120 5 40 3 55 -11 68 -20 21 -58 22 -75 3z"/>
<path d="M3479 6725 c-28 -15 -59 -70 -59 -103 0 -26 90 -289 144 -421 107
-260 258 -547 307 -581 32 -24 94 -29 128 -11 33 18 61 71 61 114 0 27 -12 59
-39 105 -108 186 -227 447 -306 672 -26 74 -52 147 -57 163 -17 45 -63 77
-111 77 -23 -1 -54 -7 -68 -15z"/>
<path d="M2545 6691 c-48 -22 -79 -54 -100 -103 -36 -87 -5 -218 66 -283 51
-45 76 -55 147 -55 68 0 120 26 166 83 27 34 31 48 34 113 5 84 -12 144 -55
195 -31 37 -92 69 -131 69 l-29 0 15 -65 c10 -41 21 -65 30 -65 26 0 72 -57
72 -90 0 -33 -51 -97 -68 -86 -5 3 -27 73 -48 156 -21 82 -43 150 -49 150 -5
0 -28 -9 -50 -19z m53 -217 c13 -48 21 -88 19 -90 -2 -2 -18 1 -36 7 -57 20
-80 104 -41 147 12 12 24 22 28 22 4 0 17 -39 30 -86z"/>
<path d="M1487 6602 c-10 -10 -17 -29 -17 -41 0 -38 22 -115 38 -133 20 -24
55 -23 76 1 17 18 17 24 1 95 -12 52 -23 80 -35 86 -27 15 -45 12 -63 -8z"/>
<path d="M2783 6216 c-133 -52 -172 -75 -195 -114 -38 -64 -10 -169 54 -207
37 -22 43 -18 -137 -86 -77 -28 -141 -52 -142 -53 -6 -5 42 -119 52 -122 9 -4
110 33 602 217 l51 20 -24 61 c-13 34 -25 63 -27 65 -2 2 -52 -15 -111 -37
-122 -46 -143 -48 -180 -19 -31 24 -35 68 -8 91 9 9 69 35 133 59 l117 43 -22
60 c-12 34 -28 62 -36 63 -8 1 -65 -17 -127 -41z"/>
<path d="M13191 6246 c-7 -8 -20 -43 -30 -79 -16 -56 -17 -68 -5 -85 35 -51
85 -27 108 52 19 65 20 98 4 114 -16 16 -63 15 -77 -2z"/>
<path d="M1612 6088 c-16 -16 -14 -52 6 -118 19 -58 46 -82 84 -72 37 9 42 43
17 113 -12 35 -27 70 -32 77 -12 15 -59 16 -75 0z"/>
<path d="M13043 5748 c-22 -11 -67 -116 -65 -151 3 -45 55 -63 85 -29 18 20
57 119 57 144 0 9 -10 24 -22 32 -26 18 -26 18 -55 4z"/>
<path d="M2931 5570 c-123 -61 -225 -110 -227 -110 -2 0 -22 36 -44 80 l-40
80 -55 -27 c-30 -15 -55 -31 -55 -35 0 -5 50 -107 110 -228 l110 -220 53 26
c28 15 53 28 55 29 2 2 -15 39 -37 83 l-40 79 229 113 228 113 -24 56 c-14 31
-28 59 -32 63 -4 4 -108 -42 -231 -102z"/>
<path d="M1796 5587 c-25 -18 -23 -51 7 -120 29 -64 58 -84 92 -62 29 18 30
49 5 108 -36 85 -63 104 -104 74z"/>
<path d="M11725 5312 c-19 -12 -64 -73 -120 -161 -168 -266 -403 -563 -649
-819 -126 -131 -146 -164 -131 -214 18 -58 81 -93 138 -77 63 17 405 388 612
664 172 231 315 459 315 504 0 47 -27 91 -65 107 -45 18 -64 18 -100 -4z"/>
<path d="M12822 5248 c-14 -18 -62 -128 -62 -143 0 -20 37 -47 62 -43 16 2 32
20 55 63 34 63 41 103 21 123 -16 16 -63 15 -76 0z"/>
<path d="M2010 5100 c-26 -26 -26 -28 12 -104 34 -70 65 -94 98 -76 34 18 34
53 1 118 -41 82 -73 100 -111 62z"/>
<path d="M12547 4737 c-19 -30 -38 -63 -41 -75 -9 -26 7 -58 32 -64 33 -9 59
10 91 66 46 83 39 126 -21 126 -22 0 -34 -10 -61 -53z"/>
<path d="M2272 4638 c-20 -20 -14 -55 23 -112 37 -58 62 -73 94 -57 37 20 35
48 -6 114 -32 51 -44 63 -68 65 -17 2 -36 -3 -43 -10z"/>
<path d="M3584 4516 c-64 -28 -83 -100 -43 -165 35 -57 375 -389 534 -522 148
-123 330 -259 474 -355 88 -59 142 -66 185 -25 61 57 52 135 -22 188 -22 15
-95 67 -163 115 -255 180 -565 447 -751 649 -84 92 -134 130 -170 129 -7 -1
-27 -7 -44 -14z"/>
<path d="M12298 4340 c-29 -17 -88 -107 -88 -134 0 -16 9 -31 26 -42 24 -16
27 -16 52 3 27 20 92 108 92 125 0 11 -46 58 -57 58 -4 0 -16 -5 -25 -10z"/>
<path d="M2567 4189 c-19 -26 -14 -40 36 -106 30 -41 46 -53 66 -53 62 0 67
53 13 125 -44 59 -89 72 -115 34z"/>
<path d="M11974 3920 c-28 -11 -104 -103 -104 -127 0 -25 30 -53 57 -53 20 0
74 52 108 104 13 19 14 29 5 45 -14 28 -41 40 -66 31z"/>
<path d="M2912 3788 c-26 -26 -13 -63 42 -117 46 -45 58 -53 80 -47 14 3 30
15 36 26 14 26 1 51 -53 108 -42 43 -81 54 -105 30z"/>
<path d="M11610 3532 c-8 -2 -36 -25 -62 -50 -66 -63 -64 -122 2 -122 32 0
130 95 130 127 0 30 -38 55 -70 45z"/>
<path d="M9650 3375 c-301 -152 -657 -287 -975 -370 -156 -41 -177 -51 -201
-96 -31 -61 11 -141 81 -155 75 -14 580 143 893 277 217 93 465 221 487 252
20 28 19 101 -1 132 -16 25 -62 45 -98 44 -12 0 -95 -38 -186 -84z"/>
<path d="M3280 3401 c-17 -33 -12 -45 43 -99 54 -53 90 -65 115 -40 26 26 13
64 -38 112 -55 51 -101 62 -120 27z"/>
<path d="M11156 3134 c-43 -35 -56 -51 -56 -73 0 -34 17 -51 50 -51 38 0 143
99 134 126 -21 58 -55 58 -128 -2z"/>
<path d="M3696 3064 c-31 -31 -20 -61 42 -109 62 -49 90 -55 117 -25 27 30 12
61 -52 108 -62 45 -83 51 -107 26z"/>
<path d="M5844 3060 c-60 -24 -81 -106 -44 -167 17 -28 33 -36 132 -67 354
-111 880 -199 1236 -208 l103 -3 35 37 c24 27 34 47 34 70 0 37 -30 92 -58
107 -10 5 -92 15 -183 21 -399 26 -780 94 -1128 201 -68 21 -94 23 -127 9z"/>
<path d="M10733 2825 c-67 -45 -80 -68 -58 -101 23 -35 53 -30 123 21 45 33
62 52 62 68 0 57 -53 62 -127 12z"/>
<path d="M4131 2756 c-26 -31 -9 -69 49 -108 59 -40 104 -47 123 -17 19 31 -1
66 -60 103 -61 39 -93 45 -112 22z"/>
<path d="M10275 2547 c-52 -28 -60 -36 -63 -64 -3 -25 2 -35 22 -48 24 -16 28
-15 87 17 76 40 93 63 76 98 -18 36 -53 35 -122 -3z"/>
<path d="M4586 2479 c-23 -33 -6 -61 60 -96 85 -47 124 -41 124 17 0 31 -18
49 -77 79 -54 27 -88 27 -107 0z"/>
<path d="M9788 2309 c-50 -25 -58 -33 -58 -58 0 -59 43 -68 130 -26 65 31 81
56 60 94 -15 30 -63 26 -132 -10z"/>
<path d="M5078 2269 c-11 -6 -18 -22 -18 -38 0 -35 19 -52 92 -81 55 -21 59
-21 83 -6 29 19 33 56 8 78 -20 16 -119 58 -137 58 -6 0 -19 -5 -28 -11z"/>
<path d="M9310 2127 c-75 -30 -80 -34 -80 -66 0 -33 16 -51 45 -51 32 0 138
38 147 53 13 21 9 53 -10 70 -23 21 -34 21 -102 -6z"/>
<path d="M5571 2076 c-7 -8 -11 -27 -9 -43 3 -24 11 -31 63 -50 81 -30 111
-29 131 2 15 23 15 27 0 49 -10 16 -35 30 -70 40 -67 20 -100 20 -115 2z"/>
<path d="M8805 1981 c-77 -21 -85 -26 -85 -60 0 -53 32 -62 130 -36 60 16 83
38 74 69 -13 43 -40 49 -119 27z"/>
<path d="M6091 1941 c-41 -41 -19 -75 59 -96 30 -8 65 -15 77 -15 47 0 71 61
36 92 -10 9 -36 18 -58 22 -22 4 -52 9 -67 12 -19 4 -33 -1 -47 -15z"/>
<path d="M8265 1879 c-70 -11 -97 -56 -58 -94 14 -14 28 -16 87 -10 80 7 106
24 106 66 0 47 -31 56 -135 38z"/>
<path d="M6621 1854 c-22 -15 -27 -49 -12 -72 10 -16 71 -31 127 -32 51 0 80
26 70 65 -8 30 -30 40 -107 48 -41 4 -63 1 -78 -9z"/>
<path d="M7693 1820 c-30 -12 -38 -46 -19 -75 15 -22 23 -25 84 -25 80 0 112
17 112 59 0 15 -5 32 -12 39 -14 14 -132 15 -165 2z"/>
<path d="M7141 1806 c-20 -24 -9 -69 19 -83 36 -18 131 -16 158 3 26 18 29 56
6 78 -21 22 -166 23 -183 2z"/>
<path d="M2246 12739 c-743 -775 -1312 -1726 -1636 -2734 -157 -487 -255 -956
-316 -1510 -22 -198 -31 -971 -15 -1200 146 -2024 1094 -3826 2691 -5111 684
-551 1544 -1001 2382 -1248 601 -177 1159 -269 1793 -296 392 -17 883 8 1285
66 1891 272 3584 1280 4733 2819 601 804 1021 1722 1242 2714 99 445 164 999
165 1399 l0 152 -98 0 -99 0 -6 -237 c-30 -1142 -373 -2322 -962 -3308 -428
-716 -992 -1362 -1650 -1891 -940 -755 -2096 -1260 -3305 -1443 -363 -55 -526
-65 -1035 -66 -432 0 -500 2 -681 22 -485 54 -865 127 -1249 238 -1469 428
-2714 1294 -3658 2548 -447 593 -841 1370 -1058 2087 -493 1624 -387 3370 295
4894 322 718 732 1329 1303 1942 l132 141 -37 34 c-20 19 -53 49 -73 67 l-36
33 -107 -112z"/>
</g>
</svg>
