<?xml version="1.0" standalone="no"?>
<!DOCTYPE svg PUBLIC "-//W3C//DTD SVG 20010904//EN"
 "http://www.w3.org/TR/2001/REC-SVG-20010904/DTD/svg10.dtd">
<svg version="1.0" xmlns="http://www.w3.org/2000/svg"
 width="500.000000pt" height="500.000000pt" viewBox="0 0 500.000000 500.000000"
 preserveAspectRatio="xMidYMid meet">

<g transform="translate(0.000000,500.000000) scale(0.100000,-0.100000)"
fill="#000000" stroke="none">
<path d="M2105 4270 c-60 -5 -164 -15 -230 -25 -119 -16 -484 -80 -517 -91
-12 -3 -18 0 -18 9 0 21 -25 38 -43 31 -9 -3 -20 -18 -25 -32 -8 -25 -19 -29
-128 -55 -240 -57 -582 -186 -654 -246 -23 -19 -31 -33 -27 -44 9 -24 50 -21
73 5 40 45 281 142 528 213 217 61 205 59 210 33 2 -13 14 -374 26 -803 12
-429 25 -825 29 -880 6 -100 6 -100 34 -103 l27 -3 0 153 c0 84 -9 443 -20
798 -10 355 -20 697 -22 760 l-3 114 60 13 c161 34 540 94 661 104 156 13 298
9 315 -8 33 -33 -73 -148 -192 -207 -36 -18 -96 -39 -132 -46 -69 -13 -103
-34 -73 -46 25 -10 194 33 267 67 126 60 219 151 219 215 0 42 -31 61 -117 74
-75 11 -87 11 -248 0z"/>
<path d="M2443 4028 c-46 -50 -48 -74 -48 -573 l0 -470 -63 -42 c-112 -76
-246 -102 -272 -53 -27 50 2 140 53 167 26 13 37 14 65 3 37 -13 59 -3 49 24
-8 21 -72 31 -118 17 -47 -14 -81 -44 -107 -91 -22 -42 -149 -123 -230 -146
-44 -13 -59 -14 -83 -4 -48 20 -78 103 -46 127 6 6 35 13 64 16 93 11 141 50
107 88 -21 23 -108 26 -157 5 -69 -28 -116 -119 -97 -185 36 -128 192 -134
366 -15 l64 44 0 -30 c0 -19 11 -42 29 -62 24 -27 36 -32 89 -36 55 -4 70 0
134 30 40 20 94 54 120 77 l47 42 3 -78 c3 -76 4 -78 29 -81 34 -4 41 6 78
124 31 96 71 174 91 174 10 0 16 -16 29 -94 19 -103 52 -127 134 -92 40 16 97
80 97 108 0 18 -7 14 -45 -25 -46 -49 -82 -60 -104 -33 -6 7 -14 45 -18 82 -8
94 -14 104 -67 104 -55 0 -87 -25 -128 -96 -16 -30 -32 -54 -34 -54 -7 0 6
132 27 285 53 394 65 659 31 725 -21 44 -58 51 -89 18z m70 -95 c6 -48 -10
-342 -28 -515 l-13 -133 2 330 c1 182 6 338 10 347 12 26 23 14 29 -29z m-763
-873 c0 -5 -12 -12 -27 -16 -16 -3 -34 -7 -40 -10 -19 -5 -16 7 5 22 20 16 62
18 62 4z"/>
<path d="M3084 2902 c-17 -10 -117 -195 -192 -351 -135 -282 -297 -740 -407
-1146 -32 -115 -59 -212 -61 -214 -12 -13 -21 31 -159 789 -128 707 -141 760
-178 760 -39 -1 -40 -13 -3 -196 19 -99 51 -271 71 -384 109 -623 192 -1040
216 -1093 22 -48 78 -47 98 1 6 15 33 113 61 217 71 267 152 531 225 735 124
343 163 436 291 691 51 103 90 190 87 193 -9 8 -35 7 -49 -2z"/>
<path d="M4485 1908 c-15 -11 -40 -39 -56 -60 -30 -43 -31 -43 -41 27 -2 14
-11 20 -28 20 -23 0 -25 -4 -28 -57 -3 -51 -7 -60 -38 -88 -49 -42 -69 -37
-66 16 4 57 -20 112 -52 120 -78 19 -147 -28 -176 -122 -21 -69 -55 -127 -89
-150 -35 -25 -44 -8 -38 68 3 38 2 81 -4 95 -9 23 -13 25 -54 18 l-45 -6 3 48
c2 42 0 48 -20 51 -43 6 -69 -70 -39 -114 14 -19 10 -24 -65 -88 l-79 -67 0
118 c0 122 -6 143 -41 143 -24 0 -30 -12 -44 -96 -8 -41 -23 -87 -34 -103 -24
-33 -58 -48 -73 -33 -17 17 -28 86 -22 140 l6 52 -35 0 c-40 0 -67 -27 -67
-67 0 -39 -168 -138 -254 -149 -41 -6 -48 -4 -75 24 -23 22 -31 40 -31 66 0
42 3 44 82 57 100 16 142 55 99 91 -16 12 -40 18 -73 18 -153 0 -239 -160
-141 -262 70 -74 212 -48 356 65 21 16 39 28 41 26 1 -2 9 -19 16 -38 28 -69
122 -93 179 -45 l31 26 0 -60 c0 -42 -5 -63 -16 -73 -61 -51 -171 -234 -199
-332 -57 -200 37 -362 177 -304 85 36 118 160 118 447 0 108 5 201 11 217 14
38 189 213 213 213 17 0 18 -6 12 -72 -7 -91 5 -122 52 -126 42 -4 93 27 117
72 l19 35 33 -30 c50 -44 106 -35 162 25 14 15 35 26 50 26 15 0 43 14 64 31
l37 30 0 -61 c0 -47 4 -62 16 -67 28 -11 46 10 73 88 32 91 77 169 96 169 12
0 15 -19 15 -99 0 -84 3 -102 21 -125 43 -55 114 -20 161 80 38 82 31 105 -10
33 -42 -73 -67 -96 -87 -79 -12 10 -15 35 -15 114 0 66 -4 106 -12 114 -20 20
-82 14 -113 -10z m-315 -119 c0 -15 -4 -30 -9 -33 -14 -9 -34 50 -26 75 7 22
8 22 21 4 8 -10 14 -31 14 -46z m-1150 42 c0 -9 -54 -31 -74 -31 -6 1 0 10 13
20 24 21 61 27 61 11z m1097 -103 c18 -18 23 -32 18 -47 -7 -22 -46 -38 -64
-26 -12 7 -15 93 -5 120 6 16 8 16 17 -1 5 -11 21 -31 34 -46z m-631 -432
c-16 -294 -48 -407 -104 -377 -50 27 -66 139 -36 254 16 61 70 179 106 230 34
47 41 24 34 -107z"/>
</g>
</svg>
